<svg width="40" height="40" viewBox="0 0 40 40" fill="none" xmlns="http://www.w3.org/2000/svg">
<path d="M21.9441 20.0134L34.6033 7.39703C35.1322 6.86318 35.1322 5.99833 34.6033 5.46447C34.0838 4.92107 33.2258 4.90475 32.6864 5.428L20.0271 18.0444L7.53065 5.428C7.27445 5.1548 6.91797 5 6.54504 5C6.17211 5 5.81563 5.1548 5.55943 5.428C5.0905 5.94379 5.0905 6.73539 5.55943 7.25118L18.0559 19.8493L5.39667 32.4475C4.86778 32.9813 4.86778 33.8462 5.39667 34.38C5.64846 34.64 5.99474 34.785 6.35515 34.7811C6.72251 34.8112 7.08669 34.6932 7.36789 34.453L20.0271 21.8366L32.6864 34.5988C32.9381 34.8588 33.2844 35.0037 33.6448 34.9999C34.0049 35.0016 34.3504 34.8571 34.6033 34.5988C35.1322 34.065 35.1322 33.2001 34.6033 32.6663L21.9441 20.0134Z" fill="#FCFCFD"/>
</svg>
