<svg width="59" height="73" viewBox="0 0 59 73" fill="none" xmlns="http://www.w3.org/2000/svg">
<path fill-rule="evenodd" clip-rule="evenodd" d="M29.5 4.26077L28.6605 10.9097C27.0147 23.9445 16.9078 34.355 3.82006 36.5C16.9078 38.645 27.0148 49.0555 28.6605 62.0903L29.5 68.7392L30.3395 62.0903C31.9852 49.0555 42.0922 38.645 55.1799 36.5C42.0922 34.355 31.9852 23.9445 30.3395 10.9097L29.5 4.26077ZM27.6172 10.7806L28.9783 0L30.0217 3.49027e-08L31.3828 10.7806C32.9718 23.3656 42.735 33.4154 55.3747 35.4767L58.5 35.9864L58.5 37.0136L55.3747 37.5233C42.735 39.5846 32.9718 49.6344 31.3828 62.2194L30.0217 73H28.9783L27.6172 62.2194C26.0282 49.6344 16.265 39.5846 3.62531 37.5233L0.500001 37.0136L0.5 35.9864L3.62531 35.4767C16.265 33.4154 26.0282 23.3656 27.6172 10.7806Z" fill="#518224"/>
</svg>
